<svg xmlns="http://www.w3.org/2000/svg" xmlns:xlink="http://www.w3.org/1999/xlink" version="1.1" x="0px" y="0px" viewBox="0 0 59 59" style="enable-background:new 0 0 59 59;" xml:space="preserve">
<style type="text/css">
	.st0{fill:#003367;}
	.st1{fill:#ffffff;}
</style>
<g id="Layer_2">
	<rect x="-3.4" y="-1.1" class="st0" width="64.3" height="63.2" fill="#ffffff"/>
</g>
<g id="Capa_1">
	<g>
		<ellipse class="st1" cx="21.9" cy="14.4" rx="1.3" ry="1.3" fill="#ffffff"/>
		<ellipse class="st1" cx="34.6" cy="17.9" rx="1.3" ry="1.3" fill="#ffffff"/>
		<path class="st1" d="M53.7,30.1c-0.1-0.2-0.2-0.4-0.3-0.5l-7.5-7.2c-0.2-0.2-0.5-0.3-0.8-0.3h-0.9c-0.5-4.4-2.9-9.4-3.9-11.5    c-0.2-0.4-0.6-0.7-1-0.9l-3.8-1.4c-0.6-0.2-1.2-0.1-1.7,0.2l-0.5,0.3c-0.1,0-0.1,0.1-0.2,0.1h-7.7c-0.1,0-0.1,0-0.2-0.1l-0.5-0.3    c-0.5-0.4-1.2-0.4-1.7-0.2l-3.8,1.4c-0.4,0.2-0.8,0.5-1,0.9c-1.1,2.1-3.4,7.1-3.9,11.5h-0.1c-0.3,0-0.5,0.1-0.8,0.3l-7.6,7.1    c-0.2,0.2-0.3,0.4-0.4,0.6c-0.4,0.4-0.7,0.9-0.7,1.5v17.2c0,1.1,0.8,1.9,1.9,1.9h46.1c1,0,1.9-0.9,1.9-1.9V31.7    C54.4,31,54.2,30.5,53.7,30.1z M35,11.3h1.7V13H35V11.3z M31.6,12.2h1.7v1.8h-1.7V12.2z M34.6,14.8c1.6,0,3,1.4,3,3.1    c0,1.7-1.3,3.1-3,3.1c-1.6,0-3-1.4-3-3.1S32.9,14.8,34.6,14.8z M26.5,16.6v1.8h1.7v1.8h-1.7v1.8h-1.7v-1.8h-1.7v-1.8h1.7v-1.8    C24.8,16.6,26.5,16.6,26.5,16.6z M21.9,11.3c1.6,0,3,1.4,3,3.1c0,1.7-1.3,3.1-3,3.1s-3-1.4-3-3.1C18.9,12.7,20.3,11.3,21.9,11.3z     M14.1,24c0,0,0,0.1,0,0.1c0,0.2,0,0.3,0,0.5c0,0.1,0,0.2,0,0.2c0,0.2,0.1,0.4,0.1,0.6c0,0.1,0,0.1,0,0.2c0,0.1,0.1,0.3,0.1,0.4    c0,0.1,0.1,0.2,0.1,0.2c0,0.1,0.1,0.2,0.1,0.4c0,0.1,0.1,0.1,0.1,0.2c0.1,0.1,0.1,0.2,0.2,0.3c0,0.1,0.1,0.1,0.1,0.2    c0.1,0.1,0.1,0.2,0.2,0.3c0,0.1,0.1,0.1,0.1,0.2c0.1,0.1,0.2,0.2,0.3,0.3c0,0,0.1,0.1,0.1,0.1c0.1,0.1,0.3,0.2,0.5,0.4    c0.6,0.4,1.5,0.3,2.1-0.2l4.5-4c0.1-0.1,0.2-0.2,0.4-0.3c0.1-0.1,0.2-0.1,0.3-0.2c0,0,0.1,0,0.1,0c0.1,0,0.2-0.1,0.4-0.1    c0,0,0,0,0,0c0.1,0,0.3,0,0.4-0.1l9.4,0c0.5,0,0.9,0.1,1.3,0.4c0.1,0.1,0.3,0.2,0.4,0.3l4.5,4c0.3,0.3,0.7,0.4,1.2,0.4    c0.1,0,0.2,0,0.4-0.1c0,0,0,0,0.1,0c0.2,0,0.3-0.1,0.5-0.2c0.2-0.1,0.3-0.2,0.5-0.4c0,0,0.1-0.1,0.1-0.1c0.1-0.1,0.2-0.2,0.3-0.3    c0.1-0.1,0.1-0.1,0.1-0.2c0.1-0.1,0.1-0.2,0.2-0.3c0-0.1,0.1-0.1,0.1-0.2c0.1-0.1,0.1-0.2,0.2-0.3c0-0.1,0.1-0.2,0.1-0.2    c0-0.1,0.1-0.2,0.1-0.3c0-0.1,0.1-0.2,0.1-0.2c0.1-0.2,0.1-0.4,0.2-0.6c0-0.1,0-0.2,0-0.3c0-0.1,0-0.3,0.1-0.4c0-0.1,0-0.2,0-0.3    c0-0.1,0-0.3,0-0.4c0-0.1,0-0.1,0-0.2h0.6l6.1,5.8H8L14.1,24z M27.4,49h-21c-0.1,0-0.2-0.1-0.2-0.2v-1.6h21.1V49z M8.8,41.1v-1.8    h12.7v1.8H8.8z M23.2,41.1v-1.8h1.7v1.8H23.2z M27.4,33.2H6.2v-1.5c0.1,0,0.1,0,0.2,0h21V33.2z M52.8,48.8c0,0.1-0.1,0.2-0.2,0.2    H29.1v-1.8h23.7V48.8z M43.5,40.2c0-1.9,1.5-3.5,3.4-3.5c1.9,0,3.4,1.6,3.4,3.5s-1.5,3.5-3.4,3.5C45,43.8,43.5,42.2,43.5,40.2z     M52.8,33.2H29.1v-1.4h23.5c0.1,0,0.1,0,0.2,0V33.2z" fill="#ffffff"/>
		<ellipse class="st1" cx="46.8" cy="40.2" rx="1.7" ry="1.8" fill="#ffffff"/>
	</g>
</g>
</svg>